<!-- Exported by Character Map UWP -->
<svg height="100%" viewBox="205 227 887 899" width="100%" xmlns="http://www.w3.org/2000/svg" xmlns:xlink="http://www.w3.org/1999/xlink">
  <path d="M692.224,228.352C742.059,230.4 790.357,242.859 837.12,265.728C883.883,288.597 925.355,318.464 961.536,355.328C1048.23,448.853 1091.58,558.08 1091.58,683.008C1091.58,780.629 1057.45,873.813 989.184,962.56C955.051,1003.52 916.309,1037.14 872.96,1063.42C829.611,1089.71 783.019,1107.29 733.184,1116.16C623.957,1136.64 524.971,1121.96 436.224,1072.13C390.485,1046.87 350.549,1014.95 316.416,976.384C282.283,937.813 256.171,894.635 238.08,846.848C219.989,799.061 209.237,748.885 205.824,696.32C202.411,643.755 208.555,593.579 224.256,545.792C258.389,441.344 318.805,360.789 405.504,304.128C446.464,276.821 491.349,256.171 540.16,242.176C588.971,228.181 639.659,223.573 692.224,228.352ZM726.016,1054.72C812.715,1034.24 884.395,988.843 941.056,918.528C997.717,841.387 1024,760.491 1019.9,675.84C1019.9,623.275 1010.18,573.099 990.72,525.312C971.264,477.525 944.469,435.541 910.336,399.36C844.117,333.141 768,296.619 681.984,289.792C638.976,287.744 595.797,291.84 552.448,302.08C509.099,312.32 470.357,330.069 436.224,355.328C363.179,409.941 313.515,481.621 287.232,570.368C260.949,659.115 266.581,744.448 304.128,826.368C341.675,908.288 399.36,970.752 477.184,1013.76C513.365,1036.29 553.131,1050.97 596.48,1057.79C639.829,1064.62 683.008,1063.59 726.016,1054.72ZM528.384,484.352L575.488,457.728L862.208,648.192L862.208,703.488L575.488,893.952L528.384,867.328ZM589.824,542.72L589.824,808.96L787.456,675.84Z" fill="#FFFFFF" fill-opacity="1">
  </path>
</svg>